<svg width="1000" height="1000" viewBox="0 0 1000 1000" fill="none" xmlns="http://www.w3.org/2000/svg">
<path d="M691.136 156.761C746.698 156.761 787.674 169.827 813.587 196.391H813.588C839.491 222.294 852.243 262.28 852.243 315.915V343.246C852.243 378.567 846.361 407.537 834.46 430.037L834.461 430.038C823.533 451.895 806.666 467.848 783.939 477.862C809.897 487.278 829.519 503.747 842.713 527.24C856.276 551.388 862.98 582.834 862.98 621.438V680.004C862.98 733.063 848.89 773.988 820.421 802.456C792.591 830.287 751.655 844.038 697.969 844.038H527.102V156.761H691.136ZM638.474 742.428H697.969C716.507 742.428 729.861 737.64 738.46 728.442C747.066 718.585 751.608 701.641 751.608 677.077V617.534C751.608 586.39 746.063 565.604 735.56 554.483L735.521 554.442L735.484 554.398C725.617 542.681 708.757 536.564 684.304 536.564H638.474V742.428ZM638.474 434.953H678.447C699.602 434.953 714.92 429.507 724.82 418.989L724.841 418.966L724.862 418.945C735.366 408.441 740.871 390.552 740.871 364.72V326.653C740.871 302.083 736.328 284.762 727.661 274.238L727.616 274.181C719.659 263.776 706.694 258.373 688.209 258.372H638.474V434.953Z" fill="#C28E6B" stroke="#C49270" stroke-width="4"></path>
<path d="M300.082 147C352.524 147 392.818 162.088 420.629 192.536C448.419 222.311 462.164 265.171 462.164 320.796V381.362H356.648V313.963C356.648 291.738 352.051 275.44 343.197 264.723C334.404 254.078 321.137 248.611 303.011 248.611C284.884 248.611 271.616 254.078 262.823 264.723C253.97 275.44 249.372 291.738 249.372 313.963V687.813C249.372 709.708 253.968 725.756 262.814 736.31C271.605 746.797 284.875 752.188 303.011 752.188C321.147 752.188 334.417 746.797 343.207 736.31C352.054 725.756 356.648 709.708 356.648 687.813V556.086H302.963V454.475H462.164V680.005C462.164 735.633 448.418 778.805 420.645 809.224L420.638 809.231L420.63 809.239C392.816 839.04 352.521 853.8 300.082 853.8C247.644 853.8 207.348 839.04 179.534 809.239L179.527 809.231L179.52 809.224C151.746 778.805 138 735.633 138 680.005V320.796C138 265.171 151.744 222.311 179.534 192.536C207.345 162.087 247.64 147 300.082 147Z" fill="#C28E6B" stroke="#C49270" stroke-width="4"></path>
</svg>
