<svg width="729" height="711" viewBox="0 0 729 711" fill="none" xmlns="http://www.w3.org/2000/svg">
<g clip-path="url(#clip0_109_29)">
<path d="M555.136 11.7611C610.698 11.7611 651.674 24.8265 677.587 51.391H677.588C703.491 77.2938 716.243 117.28 716.243 170.915V198.246C716.243 233.567 710.361 262.537 698.46 285.037L698.461 285.038C687.533 306.895 670.666 322.848 647.939 332.862C673.897 342.278 693.519 358.747 706.713 382.24C720.276 406.388 726.98 437.834 726.98 476.438V535.004C726.98 588.063 712.89 628.988 684.421 657.456C656.591 685.287 615.654 699.038 561.969 699.038H391.102V11.7611H555.136ZM502.474 597.428H561.969C580.506 597.428 593.861 592.64 602.459 583.442C611.066 573.585 615.608 556.641 615.608 532.077V472.534C615.608 441.39 610.063 420.604 599.56 409.483L599.521 409.442L599.484 409.398C589.617 397.681 572.757 391.564 548.304 391.564H502.474V597.428ZM502.474 289.953H542.447C563.602 289.953 578.92 284.507 588.82 273.989L588.841 273.966L588.862 273.945C599.366 263.441 604.871 245.552 604.871 219.72V181.653C604.871 157.083 600.328 139.762 591.661 129.238L591.616 129.181C583.659 118.776 570.694 113.373 552.208 113.372H502.474V289.953Z" fill="#C28E6B" stroke="#C49270" style="fill:#C28E6B;fill:color(display-p3 0.7608 0.5569 0.4196);fill-opacity:1;stroke:#C49270;stroke:color(display-p3 0.7684 0.5711 0.4383);stroke-opacity:1;" stroke-width="4"/>
<path d="M164.082 2C216.524 2 256.818 17.0877 284.629 47.5361C312.419 77.3111 326.164 120.171 326.164 175.796V236.362H220.648V168.963C220.648 146.738 216.051 130.44 207.197 119.723C198.404 109.078 185.137 103.611 167.011 103.611C148.884 103.611 135.616 109.078 126.823 119.723C117.97 130.44 113.372 146.738 113.372 168.963V542.813C113.372 564.708 117.968 580.757 126.814 591.311C135.605 601.797 148.875 607.188 167.011 607.188C185.147 607.188 198.417 601.797 207.207 591.311C216.054 580.757 220.648 564.708 220.648 542.813V411.086H166.963V309.475H326.164V535.005C326.164 590.633 312.418 633.805 284.645 664.224L284.638 664.231L284.63 664.239C256.816 694.04 216.521 708.8 164.082 708.8C111.644 708.8 71.3484 694.04 43.5342 664.239L43.5273 664.231L43.5195 664.224C15.7458 633.805 2.00007 590.633 2 535.005V175.796C2 120.171 15.7442 77.3111 43.5342 47.5361C71.3447 17.0873 111.64 2.00004 164.082 2Z" fill="#C28E6B" stroke="#C49270" style="fill:#C28E6B;fill:color(display-p3 0.7608 0.5569 0.4196);fill-opacity:1;stroke:#C49270;stroke:color(display-p3 0.7684 0.5711 0.4383);stroke-opacity:1;" stroke-width="4"/>
<path d="M555.136 11.7611C610.698 11.7611 651.674 24.8265 677.587 51.391H677.588C703.491 77.2938 716.243 117.28 716.243 170.915V198.246C716.243 233.567 710.361 262.537 698.46 285.037L698.461 285.038C687.533 306.895 670.666 322.848 647.939 332.862C673.897 342.278 693.519 358.747 706.713 382.24C720.276 406.388 726.98 437.834 726.98 476.438V535.004C726.98 588.063 712.89 628.988 684.421 657.456C656.591 685.287 615.654 699.038 561.969 699.038H391.102V11.7611H555.136ZM502.474 597.428H561.969C580.506 597.428 593.861 592.64 602.459 583.442C611.066 573.585 615.608 556.641 615.608 532.077V472.534C615.608 441.39 610.063 420.604 599.56 409.483L599.521 409.442L599.484 409.398C589.617 397.681 572.757 391.564 548.304 391.564H502.474V597.428ZM502.474 289.953H542.447C563.602 289.953 578.92 284.507 588.82 273.989L588.841 273.966L588.862 273.945C599.366 263.441 604.871 245.552 604.871 219.72V181.653C604.871 157.083 600.328 139.762 591.661 129.238L591.616 129.181C583.659 118.776 570.694 113.373 552.208 113.372H502.474V289.953Z" fill="#C26D53" stroke="#AE6149" style="fill:#C26D53;fill:color(display-p3 0.7608 0.4275 0.3255);fill-opacity:1;stroke:#AE6149;stroke:color(display-p3 0.6830 0.3803 0.2877);stroke-opacity:1;" stroke-width="4"/>
<path d="M164.082 2C216.524 2 256.818 17.0877 284.629 47.5361C312.419 77.3111 326.164 120.171 326.164 175.796V236.362H220.648V168.963C220.648 146.738 216.051 130.44 207.197 119.723C198.404 109.078 185.137 103.611 167.011 103.611C148.884 103.611 135.616 109.078 126.823 119.723C117.97 130.44 113.372 146.738 113.372 168.963V542.813C113.372 564.708 117.968 580.757 126.814 591.311C135.605 601.797 148.875 607.188 167.011 607.188C185.147 607.188 198.417 601.797 207.207 591.311C216.054 580.757 220.648 564.708 220.648 542.813V411.086H166.963V309.475H326.164V535.005C326.164 590.633 312.418 633.805 284.645 664.224L284.638 664.231L284.63 664.239C256.816 694.04 216.521 708.8 164.082 708.8C111.644 708.8 71.3484 694.04 43.5342 664.239L43.5273 664.231L43.5195 664.224C15.7458 633.805 2.00007 590.633 2 535.005V175.796C2 120.171 15.7442 77.3111 43.5342 47.5361C71.3447 17.0873 111.64 2.00004 164.082 2Z" fill="#C26D53" stroke="#AE6149" style="fill:#C26D53;fill:color(display-p3 0.7608 0.4275 0.3255);fill-opacity:1;stroke:#AE6149;stroke:color(display-p3 0.6830 0.3803 0.2877);stroke-opacity:1;" stroke-width="4"/>
</g>
<defs>
<clipPath id="clip0_109_29">
<rect width="729" height="711" fill="white" style="fill:white;fill-opacity:1;"/>
</clipPath>
</defs>
</svg>
